<?xml version="1.0" encoding="utf-8"?>
<!-- Generator: Adobe Illustrator 26.5.0, SVG Export Plug-In . SVG Version: 6.00 Build 0)  -->
<svg version="1.1" id="Layer_1" xmlns="http://www.w3.org/2000/svg" xmlns:xlink="http://www.w3.org/1999/xlink" x="0px" y="0px"
	 viewBox="0 0 48 48" style="enable-background:new 0 0 48 48;" xml:space="preserve">
<style type="text/css">
	.st0{fill:#FFFFFF;}
</style>
<g>
	<g>
		<path class="st0" d="M44.3,33.9c-0.4-0.4-0.6-0.9-0.6-1.5c0-0.6,0.2-1.1,0.6-1.5c0.4-0.4,0.9-0.6,1.5-0.6c0.6,0,1.1,0.2,1.5,0.6
			c0.4,0.4,0.6,0.9,0.6,1.5c0,0.6-0.2,1.1-0.6,1.5c-0.4,0.4-0.9,0.6-1.5,0.6C45.2,34.5,44.7,34.3,44.3,33.9z"/>
		<path class="st0" d="M42,26.6c0.2,0,0.3,0.1,0.3,0.3c0,0.3,0,0.6,0,1c0,0.4-0.1,0.8-0.2,1.4c-0.1,0.6-0.2,1.1-0.4,1.7
			S41.3,32,41,32.6c-0.3,0.6-0.6,1-1,1.4c-0.4,0.4-0.8,0.7-1.4,0.9s-1.2,0.3-1.8,0.2c-0.7-0.1-1.4-0.4-1.9-0.8s-1.1-1-1.5-1.7
			c-0.4-0.7-0.7-1.4-1.1-2.3c-0.3-0.9-0.6-1.7-0.7-2.5s-0.3-1.6-0.5-2.4c-0.1-0.9-0.3-1.8-0.4-2.4c-0.1-0.7-0.3-1.4-0.5-2.2
			c-0.2-0.8-0.4-1.5-0.6-1.9c-0.2-0.5-0.5-0.9-0.8-1.2C28.4,17.2,28,17,27.7,17c-0.5,0-1,0.3-1.5,0.8c-0.5,0.6-0.9,1.3-1.2,2.2
			c-0.3,0.9-0.6,1.9-0.8,2.8s-0.4,1.9-0.6,3c-0.3,1.5-0.1,3,0.5,4.4c0.4,0.9,0.8,1.3,1.3,1.3c0.6,0,1-0.1,1.3-0.4
			c0.3-0.3,0.5-0.8,0.7-1.4c0-0.2,0.1-0.3,0.3-0.3c0.2,0,0.3,0.1,0.3,0.3c0,0.3,0,0.7-0.1,1.2c-0.1,0.4-0.3,0.9-0.5,1.5
			c-0.3,0.5-0.6,1-1,1.5s-0.9,0.8-1.6,1C24,35,23.3,35,22.5,34.9c-0.7-0.1-1.3-0.4-1.9-0.9s-1.1-1-1.5-1.7c-0.4-0.6-0.7-1.4-1.1-2.3
			c-0.3-0.9-0.6-1.7-0.7-2.5c-0.2-0.8-0.3-1.6-0.5-2.4c-0.1-0.9-0.3-1.8-0.4-2.4c-0.1-0.7-0.3-1.4-0.5-2.2c-0.2-0.8-0.4-1.5-0.6-1.9
			c-0.2-0.5-0.5-0.9-0.8-1.2c-0.3-0.3-0.7-0.5-1.1-0.5c-0.5,0-0.9,0.2-1.4,0.7s-0.8,1.1-1.1,1.8S10.3,21,10,22
			c-0.3,1-0.5,1.9-0.6,2.7c-0.1,0.8-0.3,1.6-0.4,2.4c-0.2,1.2-0.3,2.5-0.3,3.8c0,0.8,0.3,1.5,0.8,2c0.6,0.6,1.2,0.8,2,0.8v0.3H0.2
			v-0.3c0.8,0,1.5-0.3,2-0.8c0.6-0.6,0.8-1.2,0.8-2V20.2c0-0.7-0.3-1.3-0.8-1.7s-1.1-0.6-1.8-0.5c-0.2,0-0.3,0-0.3-0.2
			c0-0.2,0-0.3,0.2-0.3c1.9-0.5,3.5-1.2,4.8-1.8s2.4-1.6,3.2-2.6c0.1-0.1,0.2,0,0.3,0s0.1,0.1,0.1,0.2v6.4c0,0.3,0.2,0.5,0.5,0.6
			s0.5-0.1,0.6-0.4c1.3-3.3,3.2-5,5.7-5.2c0.8-0.1,1.5,0,2.1,0.1s1.1,0.3,1.4,0.6s0.7,0.6,1,1c0.3,0.4,0.5,0.8,0.6,1.2
			s0.3,0.8,0.4,1.4c0.1,0.6,0.3,1.3,0.6,2.3c0.2,1,0.4,1.6,0.5,2c0.1,0.3,0.3,0.4,0.6,0.4c0.3,0,0.5-0.2,0.6-0.5
			c0.2-0.8,0.4-1.6,0.6-2.3c0.2-0.7,0.5-1.5,0.9-2.2s0.8-1.4,1.3-1.9c0.5-0.5,1-1,1.7-1.4s1.4-0.6,2.2-0.6s1.5,0,2.1,0.1
			c0.6,0.1,1.1,0.3,1.4,0.6s0.7,0.6,1,1c0.3,0.4,0.5,0.8,0.6,1.2s0.3,0.8,0.4,1.4c0.2,0.9,0.5,2.1,0.9,3.6c0.5,1.9,0.8,3.3,1,4.1
			s0.5,1.7,0.8,2.6c0.3,0.9,0.6,1.5,0.8,1.8c0.2,0.3,0.5,0.4,0.8,0.3c0.4-0.1,0.7-0.3,1-0.7c0.3-0.4,0.5-0.9,0.6-1.4
			c0.1-0.6,0.2-1,0.3-1.4c0.1-0.4,0.1-0.8,0.1-1.2C41.7,26.7,41.8,26.6,42,26.6L42,26.6z"/>
	</g>
</g>
</svg>
