<?xml version="1.0" encoding="utf-8"?>
<!-- Generator: Adobe Illustrator 26.5.0, SVG Export Plug-In . SVG Version: 6.00 Build 0)  -->
<svg version="1.1" id="Layer_1" xmlns="http://www.w3.org/2000/svg" xmlns:xlink="http://www.w3.org/1999/xlink" x="0px" y="0px"
	 viewBox="0 0 90 23" style="enable-background:new 0 0 90 23;" xml:space="preserve">
<style type="text/css">
	.st0{fill:#FFFFFF;}
</style>
<g>
	<g>
		<path class="st0" d="M45.9,21.7c-0.4-0.4-0.7-1-0.7-1.6c0-0.6,0.2-1.1,0.7-1.6c0.4-0.4,0.9-0.6,1.6-0.6c0.6,0,1.1,0.2,1.6,0.6
			c0.4,0.4,0.6,1,0.6,1.6c0,0.6-0.2,1.1-0.6,1.6c-0.4,0.4-1,0.6-1.6,0.6C46.8,22.4,46.3,22.1,45.9,21.7z"/>
		<path class="st0" d="M43.5,14.2c0.2,0,0.3,0.1,0.3,0.3c0,0.3,0,0.6-0.1,1s-0.1,0.9-0.2,1.4c-0.1,0.6-0.2,1.2-0.4,1.7
			c-0.2,0.6-0.4,1.1-0.7,1.7c-0.3,0.6-0.6,1.1-1,1.5c-0.4,0.4-0.9,0.7-1.4,0.9S38.7,23,38.1,23c-0.7-0.1-1.4-0.4-2-0.9
			s-1.1-1.1-1.5-1.7s-0.8-1.5-1.1-2.4c-0.3-0.9-0.6-1.8-0.8-2.6c-0.2-0.8-0.3-1.6-0.5-2.5c-0.2-1-0.3-1.8-0.4-2.5s-0.3-1.5-0.5-2.3
			s-0.4-1.5-0.7-2s-0.5-0.9-0.8-1.3c-0.3-0.4-0.7-0.5-1.1-0.5c-0.5,0-1,0.3-1.5,0.9s-0.9,1.3-1.2,2.3c-0.3,1-0.6,1.9-0.9,2.9
			c-0.2,1-0.4,2-0.6,3.1c-0.3,1.6-0.1,3.1,0.5,4.5c0.4,0.9,0.8,1.3,1.3,1.3c0.6,0,1-0.2,1.4-0.5s0.6-0.8,0.7-1.5
			c0-0.2,0.1-0.3,0.3-0.3c0.2,0,0.3,0.1,0.3,0.3c0,0.4-0.1,0.8-0.2,1.2c-0.1,0.5-0.3,1-0.6,1.5c-0.3,0.6-0.6,1.1-1,1.5
			c-0.4,0.4-0.9,0.8-1.6,1c-0.7,0.2-1.5,0.3-2.3,0.2c-0.7-0.1-1.4-0.4-2-0.9c-0.6-0.5-1.1-1.1-1.5-1.7s-0.8-1.5-1.1-2.4
			c-0.3-0.9-0.6-1.8-0.8-2.6c-0.2-0.8-0.3-1.6-0.5-2.5c-0.2-1-0.3-1.8-0.4-2.5s-0.3-1.5-0.5-2.3c-0.2-0.8-0.4-1.5-0.7-2
			S15.2,5,14.9,4.6c-0.3-0.4-0.7-0.5-1.1-0.5c-0.5,0-1,0.3-1.4,0.8S11.5,6,11.2,6.8c-0.3,0.7-0.6,1.6-0.9,2.7c-0.3,1-0.5,2-0.6,2.8
			c-0.2,0.8-0.3,1.7-0.4,2.5C9.1,16,9,17.3,9,18.7c0,0.8,0.3,1.5,0.9,2.1s1.3,0.9,2.1,0.9v0.3H0.1v-0.3c0.8,0,1.5-0.3,2.1-0.9
			s0.9-1.3,0.9-2.1V7.6c0-0.7-0.3-1.3-0.8-1.8S1,5.1,0.3,5.2C0.2,5.2,0.1,5.2,0,5c0-0.2,0-0.3,0.2-0.4c2-0.6,3.6-1.2,5-1.9
			S7.7,1.1,8.6,0C8.7,0,8.8,0,8.9,0S9,0.2,9,0.3v6.6c0,0.3,0.2,0.5,0.5,0.6c0.3,0.1,0.5-0.1,0.7-0.4c1.3-3.4,3.3-5.1,5.9-5.3
			c0.8-0.1,1.5,0,2.2,0.1c0.6,0.1,1.1,0.3,1.5,0.6s0.7,0.6,1,1.1s0.5,0.9,0.6,1.3s0.3,0.9,0.4,1.4c0.2,0.6,0.3,1.4,0.6,2.4
			c0.2,1,0.4,1.7,0.5,2.1c0.1,0.3,0.3,0.5,0.6,0.4c0.3,0,0.5-0.2,0.6-0.5c0.2-0.9,0.4-1.7,0.6-2.4c0.2-0.8,0.6-1.5,0.9-2.3
			s0.8-1.4,1.3-2c0.5-0.6,1.1-1,1.8-1.4c0.7-0.4,1.4-0.6,2.3-0.7c0.8-0.1,1.5,0,2.2,0.1s1.1,0.3,1.5,0.6s0.7,0.6,1,1.1
			c0.3,0.5,0.5,0.9,0.6,1.3s0.3,0.9,0.4,1.4c0.2,0.9,0.5,2.1,0.9,3.7c0.5,2,0.8,3.4,1,4.3s0.5,1.8,0.8,2.7s0.6,1.6,0.9,1.9
			c0.3,0.3,0.5,0.4,0.8,0.3c0.4-0.1,0.7-0.3,1-0.7c0.3-0.4,0.5-0.9,0.6-1.5c0.1-0.6,0.2-1.1,0.3-1.5s0.1-0.8,0.1-1.2
			C43.1,14.3,43.2,14.2,43.5,14.2L43.5,14.2z"/>
	</g>
</g>
</svg>
